<?xml version="1.0" encoding="UTF-8" standalone="no"?>
<!-- Created with Inkscape (http://www.inkscape.org/) -->

<svg
   xmlns:dc="http://purl.org/dc/elements/1.1/"
   xmlns:cc="http://creativecommons.org/ns#"
   xmlns:rdf="http://www.w3.org/1999/02/22-rdf-syntax-ns#"
   xmlns:svg="http://www.w3.org/2000/svg"
   xmlns="http://www.w3.org/2000/svg"
   xmlns:sodipodi="http://sodipodi.sourceforge.net/DTD/sodipodi-0.dtd"
   xmlns:inkscape="http://www.inkscape.org/namespaces/inkscape"
   width="286.75446mm"
   height="83.192383mm"
   viewBox="0 0 286.75445 83.192382"
   version="1.1"
   id="svg8"
   inkscape:version="0.92.3 (2405546, 2018-03-11)"
   sodipodi:docname="Balderton Capital.svg">
  <defs
     id="defs2" />
  <sodipodi:namedview
     id="base"
     pagecolor="#ffffff"
     bordercolor="#666666"
     borderopacity="1.0"
     inkscape:pageopacity="0.0"
     inkscape:pageshadow="2"
     inkscape:zoom="0.70710678"
     inkscape:cx="716.7325"
     inkscape:cy="99.479892"
     inkscape:document-units="mm"
     inkscape:current-layer="layer2"
     showgrid="false"
     inkscape:window-width="1920"
     inkscape:window-height="1013"
     inkscape:window-x="-9"
     inkscape:window-y="-9"
     inkscape:window-maximized="1"
     showguides="false" />
  <metadata
     id="metadata5">
    <rdf:RDF>
      <cc:Work
         rdf:about="">
        <dc:format>image/svg+xml</dc:format>
        <dc:type
           rdf:resource="http://purl.org/dc/dcmitype/StillImage" />
        <dc:title></dc:title>
      </cc:Work>
    </rdf:RDF>
  </metadata>
  <g
     inkscape:groupmode="layer"
     id="layer2"
     inkscape:label="Layer 2"
     transform="translate(-67.597387,-109.58074)">
    <path
       style="fill:#000000;stroke:none;stroke-width:0.1;stroke-linecap:butt;stroke-linejoin:miter;stroke-miterlimit:4;stroke-dasharray:none;stroke-opacity:1"
       d="m 67.89481,114.70781 c -0.31537,-1.15033 -0.490002,-2.30813 0.05011,-3.6499 h 17.784799 c 3.63679,0.0826 10.100141,1.26232 10.618769,8.81187 v 1.16936 c -0.569153,5.35238 -2.605806,6.00877 -4.458938,7.25242 2.325359,1.14705 4.719092,2.0206 6.26909,6.26909 0.532647,2.0217 0.299363,3.96278 0,5.8969 -2.046071,6.30323 -6.802306,7.92132 -11.362867,8.01809 H 67.936572 c -0.482729,-1.14005 -0.330043,-2.35342 0,-3.58726 h 3.812768 v -30.17444 z"
       id="path827"
       inkscape:connector-curvature="0"
       sodipodi:nodetypes="cccccccccccccc" />
    <path
       style="fill:#ffffff;stroke:none;stroke-width:0.1;stroke-linecap:butt;stroke-linejoin:miter;stroke-miterlimit:4;stroke-dasharray:none;stroke-opacity:1"
       d="m 76.38072,114.97971 h 8.805664 c 2.732285,0.13396 4.926431,1.00431 5.971217,3.44748 0.62333,1.70148 0.389466,3.32841 0,4.94182 -1.207328,2.83008 -3.728869,3.34989 -6.362184,3.67321 h -8.42315 z"
       id="path829"
       inkscape:connector-curvature="0"
       sodipodi:nodetypes="ccccccc" />
    <path
       style="fill:#ffffff;stroke:none;stroke-width:0.065;stroke-linecap:butt;stroke-linejoin:miter;stroke-miterlimit:4;stroke-dasharray:none;stroke-opacity:1"
       d="m 76.372267,130.92772 h 10.207902 c 2.760158,0.26377 5.060194,1.25432 6.430849,3.71286 0.925807,1.84602 0.637669,3.88627 0,5.98245 -1.182932,2.82833 -3.609099,3.64774 -6.211477,3.9231 h -10.37748 z"
       id="path846"
       inkscape:connector-curvature="0"
       sodipodi:nodetypes="ccccccc" />
    <path
       style="fill:#000000;stroke:none;stroke-width:0.065;stroke-linecap:butt;stroke-linejoin:miter;stroke-miterlimit:4;stroke-dasharray:none;stroke-opacity:1"
       d="m 103.73084,128.61047 v -4.07505 c 2.7854,-1.72122 5.8483,-3.11537 10.37802,-2.78078 2.66877,0.28611 5.32658,0.63508 7.41017,4.27826 0.55712,0.91963 0.6782,1.96384 0.80553,3.00627 v 16.21407 h 3.4293 c 0.39022,1.11822 0.30025,2.19278 0,3.24823 h -7.45912 v -3.40769 c -0.76944,1.01741 -1.5014,2.0752 -2.66651,2.6665 -3.44261,2.07926 -8.91203,1.86249 -11.6064,-0.42076 -1.09949,-1.01478 -2.13455,-2.14308 -2.53455,-4.38996 -0.0759,-0.77939 -0.14037,-1.5653 0,-2.46827 -0.0215,-1.09577 0.32639,-2.26544 0.93437,-3.48712 0.5895,-1.02486 1.45167,-1.89822 2.60812,-2.60811 1.9879,-1.16879 4.04636,-1.53779 6.12819,-1.64205 l 6.87692,-0.69631 v -1.75995 c -0.24296,-1.67068 -0.54788,-3.28577 -2.53349,-4.30296 -2.1477,-0.79307 -4.42863,-0.76295 -6.82142,-0.0418 -1.78958,0.60941 -3.40343,1.57028 -4.94913,2.66744 z"
       id="path848"
       inkscape:connector-curvature="0"
       sodipodi:nodetypes="cccccccccccccccccccccc" />
    <path
       style="fill:#ffffff;stroke:none;stroke-width:0.065;stroke-linecap:butt;stroke-linejoin:miter;stroke-miterlimit:4;stroke-dasharray:none;stroke-opacity:1"
       d="m 118.02455,135.37943 -7.07429,0.7517 c -2.16111,0.19265 -3.66637,1.10842 -4.59919,2.65534 -0.99728,2.18468 -0.62167,3.63011 0,4.94305 0.69882,0.84451 1.55875,1.56968 3.10029,1.78995 0.94711,0.081 1.71472,0.0423 2.47684,0 2.33524,-0.26957 3.97665,-1.36788 5.1793,-2.99027 0.56619,-0.78661 0.81176,-1.59612 0.93919,-2.41407 z"
       id="path850"
       inkscape:connector-curvature="0"
       sodipodi:nodetypes="ccccccccc" />
    <path
       style="fill:#000000;stroke:none;stroke-width:0.065;stroke-linecap:butt;stroke-linejoin:miter;stroke-miterlimit:4;stroke-dasharray:none;stroke-opacity:1"
       d="m 129.13202,148.47785 c -0.3558,-1.04004 -0.38418,-2.09402 0,-3.16555 h 3.43132 v -32.51776 h -3.46675 c -0.30092,-0.97464 -0.4778,-1.98897 0,-3.2128 h 7.86072 v 35.6715 h 3.53762 c 0.43615,1.01798 0.28104,2.11308 0,3.22461 z"
       id="path852"
       inkscape:connector-curvature="0"
       sodipodi:nodetypes="ccccccccccc" />
    <path
       sodipodi:nodetypes="cccccccccc"
       inkscape:connector-curvature="0"
       id="path854"
       d="m 160.39741,144.89469 -0.31738,-32.10015 h -3.46675 c -0.30092,-0.97464 -0.4778,-1.98897 0,-3.2128 l 7.93965,-10e-4 v 35.6715 l 3.45869,0.001 c 0.43615,1.01798 0.28104,2.11308 0,3.22461 h -7.63737 z"
       style="fill:#000000;stroke:none;stroke-width:0.065;stroke-linecap:butt;stroke-linejoin:miter;stroke-miterlimit:4;stroke-dasharray:none;stroke-opacity:1" />
    <path
       style="fill:#000000;stroke:none;stroke-width:0.065;stroke-linecap:butt;stroke-linejoin:miter;stroke-miterlimit:4;stroke-dasharray:none;stroke-opacity:1"
       d="m 160.48115,144.60942 c -1.23224,2.66544 -2.50741,3.22681 -3.7827,3.7827 -2.65871,1.13044 -5.27483,1.03786 -7.80139,0.0537 -2.67848,-1.10984 -4.64503,-2.97038 -5.81745,-5.90841 -0.35178,-1.10601 -0.8176,-2.14868 -0.91062,-3.39845 -0.60647,-3.20846 -0.44866,-5.94487 0,-8.50163 0.81504,-2.53702 1.80093,-4.95872 3.84767,-6.66435 1.95873,-1.57533 4.43615,-2.54551 8.07291,-2.16313 2.90447,0.58406 4.77053,2.10817 6.19832,4.14767 z"
       id="path856"
       inkscape:connector-curvature="0"
       sodipodi:nodetypes="cccccccccc" />
    <path
       style="fill:#ffffff;stroke:none;stroke-width:0.065;stroke-linecap:butt;stroke-linejoin:miter;stroke-miterlimit:4;stroke-dasharray:none;stroke-opacity:1"
       d="m 158.99029,129.00506 c 0.79537,1.51419 1.10996,3.14857 1.28623,4.81753 l 0.0155,0.0249 0.0331,2.70165 c -0.0912,1.62302 -0.31197,3.20285 -0.96063,4.64005 -0.83976,2.01383 -2.17771,3.21578 -3.8587,3.8587 -1.60585,0.7071 -3.21169,0.50147 -4.81754,0 -1.37108,-0.70539 -2.34535,-1.67025 -2.90572,-2.90572 -0.92764,-1.83791 -1.45377,-3.67583 -1.4774,-5.51374 0.0284,-3.29946 0.0231,-6.60859 2.48289,-9.20902 2.856,-3.21446 8.47268,-2.32436 10.20227,1.58565 z"
       id="path858"
       inkscape:connector-curvature="0"
       sodipodi:nodetypes="ccccccccccc" />
    <path
       style="fill:#000000;stroke:none;stroke-width:0.065;stroke-linecap:butt;stroke-linejoin:miter;stroke-miterlimit:4;stroke-dasharray:none;stroke-opacity:1"
       d="m 174.23801,136.73416 h 17.56295 v -2.46723 c -0.33542,-2.72943 -0.54326,-5.48013 -2.14327,-7.9988 -1.86162,-2.56274 -4.24915,-4.39297 -7.85052,-4.5325 h -1.60525 c -1.81422,0.0325 -3.12127,0.60205 -4.41703,1.18354 -2.17137,1.18847 -3.21224,2.66287 -4.191,4.191 -1.40106,2.34849 -1.67896,4.75609 -1.92003,7.16563 v 1.9509 c -0.0623,2.65865 0.72268,4.86878 1.71111,6.97118 1.23423,1.94863 2.68652,3.64637 4.74276,4.64922 4.10655,1.94666 9.13476,1.64643 12.65643,-0.0234 l 1.76565,-0.85815 v -4.31473 c -3.13155,2.09956 -6.30657,3.01102 -9.53165,2.55399 -1.92242,-0.34477 -3.46351,-1.2234 -4.6064,-2.65951 -1.30694,-1.69814 -2.08245,-3.6143 -2.17375,-5.81116 z"
       id="path860"
       inkscape:connector-curvature="0"
       sodipodi:nodetypes="cccccccccccccccccc" />
    <path
       style="fill:#ffffff;stroke:none;stroke-width:0.065;stroke-linecap:butt;stroke-linejoin:miter;stroke-miterlimit:4;stroke-dasharray:none;stroke-opacity:1"
       d="m 174.22632,133.49518 h 12.96758 c 0.0782,-2.19477 -0.5887,-4.02827 -1.53443,-5.72658 -0.89928,-1.2072 -2.18107,-2.31166 -4.16303,-2.40353 -1.85862,-0.15785 -3.07635,0.34807 -4.06657,1.08964 -2.32731,1.93964 -3.03756,4.36783 -3.20355,7.04047 z"
       id="path862"
       inkscape:connector-curvature="0"
       sodipodi:nodetypes="cccccc" />
    <path
       style="fill:#000000;stroke:none;stroke-width:0.065;stroke-linecap:butt;stroke-linejoin:miter;stroke-miterlimit:4;stroke-dasharray:none;stroke-opacity:1"
       d="m 194.57806,145.27592 h 3.47868 c 0,0 0.0409,-19.59753 0,-19.59753 h -3.42606 c -0.50379,-1.04802 -0.43045,-2.13452 0,-3.24482 h 7.09768 v 4.87599 c 0.88949,-1.49362 1.76881,-2.98953 4.1486,-4.1486 0.69353,-0.28567 1.31606,-0.58334 2.76601,-0.74116 1.19377,0.0269 2.36263,0.11257 3.38695,0.53995 l -0.38587,4.18611 c -1.82542,-0.85015 -3.73353,-1.0923 -5.82313,0 -2.2901,1.57868 -2.84976,3.5419 -3.20465,5.55063 l -0.12787,1.7926 V 145.235 h 3.67162 c 0.57944,1.07186 0.44585,2.14372 0,3.21558 h -11.58781 c -0.31519,-1.01858 -0.42382,-2.06298 0.006,-3.17466 z"
       id="path864"
       inkscape:connector-curvature="0"
       sodipodi:nodetypes="ccscccccccccccccccc" />
    <path
       style="fill:#000000;stroke:none;stroke-width:0.065;stroke-linecap:butt;stroke-linejoin:miter;stroke-miterlimit:4;stroke-dasharray:none;stroke-opacity:1"
       d="m 218.65332,115.48998 4.39043,-2.35645 v 9.28522 h 6.20418 c 0.44626,1.08849 0.36264,2.17699 0,3.26548 h -6.11546 v 15.92508 c -0.0528,1.62869 0.36636,2.95707 2.02047,3.49956 1.5955,0.32872 3.19101,3.2e-4 4.78651,-0.7297 v 3.55534 c -1.85444,0.97744 -3.95273,0.96867 -5.88698,0.81606 -1.81336,-0.25364 -3.14725,-1.09739 -4.10098,-2.40904 -0.81773,-1.29951 -1.33315,-2.79072 -1.24919,-4.66204 v -16.01864 h -4.00636 c -0.35649,-0.97387 -0.45185,-2.02808 0,-3.25067 h 3.92886 z"
       id="path866"
       inkscape:connector-curvature="0"
       sodipodi:nodetypes="cccccccccccccccccc" />
    <path
       style="fill:#000000;stroke:none;stroke-width:0.065;stroke-linecap:butt;stroke-linejoin:miter;stroke-miterlimit:4;stroke-dasharray:none;stroke-opacity:1"
       d="m 232.8664,129.13256 c 1.20267,-2.76166 2.91725,-5.24972 6.65593,-6.65593 2.80484,-0.99133 5.64808,-1.08045 8.54108,0 2.0374,0.74858 3.68385,1.91728 4.75079,3.57531 2.93458,3.55295 3.0114,7.40358 3.01753,11.26157 -0.50674,5.07899 -2.82419,8.13171 -5.94093,10.28999 -4.43302,2.51744 -8.45325,1.8243 -12.32804,0 -3.18162,-2.32963 -5.15555,-5.57939 -5.71829,-9.90436 -0.29802,-2.9343 0.0229,-5.9994 1.02193,-8.56658 z"
       id="path868"
       inkscape:connector-curvature="0"
       sodipodi:nodetypes="ccccccccc" />
    <path
       style="fill:#ffffff;stroke:none;stroke-width:0.065;stroke-linecap:butt;stroke-linejoin:miter;stroke-miterlimit:4;stroke-dasharray:none;stroke-opacity:1"
       d="m 237.67277,129.12199 c 0.77095,-1.27653 1.67492,-2.3491 2.91156,-2.91157 0.85345,-0.43851 1.70691,-0.62048 2.56036,-0.68605 h 1.28665 c 0.88911,0.0168 1.60668,0.34231 2.34605,0.62863 1.63135,0.56877 2.43924,1.84742 3.18212,3.18211 2.25273,4.10727 1.40483,9.26692 0,12.28674 -1.4995,2.83847 -3.79051,3.96801 -6.66124,3.84587 -2.12062,-0.16064 -4.17119,-0.95655 -5.10734,-2.94873 -1.48747,-2.08563 -1.83484,-4.54304 -1.90039,-7.09234 0.0583,-1.81143 0.0248,-3.55666 1.38223,-6.30466 z"
       id="path870"
       inkscape:connector-curvature="0"
       sodipodi:nodetypes="ccccccccccc" />
    <path
       style="fill:#000000;stroke:none;stroke-width:0.065;stroke-linecap:butt;stroke-linejoin:miter;stroke-miterlimit:4;stroke-dasharray:none;stroke-opacity:1"
       d="m 257.48078,145.25254 h 3.53714 v -19.59678 h -3.45018 c -0.45121,-1.10398 -0.51455,-2.18294 0,-3.22461 h 7.16857 v 3.77927 c 0.75043,-1.15748 1.62253,-2.26426 3.11327,-3.11327 1.50175,-0.74613 3.04406,-1.408 4.94501,-1.32502 h 1.07982 c 1.1969,0.11774 2.32058,0.35444 3.26901,0.87593 1.65177,0.62298 2.68795,1.88278 3.43829,3.43827 0.6704,1.56678 0.84536,2.92104 0.92826,4.60252 v 14.55784 h 3.51962 c 0.3799,1.07873 0.33673,2.17586 0,3.28575 h -10.87453 c -0.36694,-1.08745 -0.58852,-2.17491 0,-3.26236 h 2.94663 v -14.20705 c -0.15501,-2.1864 -0.5656,-4.19173 -3.05895,-5.29828 -1.2976,-0.33481 -2.57339,-0.25536 -3.83992,0 -1.61951,0.46408 -3.42279,1.97183 -4.14002,4.14 -0.45931,1.08388 -0.53451,2.26378 -0.63077,3.43842 v 11.95029 h 2.99345 c 0.44262,1.0784 0.43933,2.13451 0,3.16882 h -10.92132 c -0.306,-0.97574 -0.30982,-2.04691 -0.0234,-3.20974 z"
       id="path872"
       inkscape:connector-curvature="0"
       sodipodi:nodetypes="ccccccccccccccccccccccccccccc" />
    <ellipse
       style="opacity:1;fill:#ff6b00;fill-opacity:1;fill-rule:nonzero;stroke:none;stroke-width:0.08770822;stroke-linecap:round;stroke-linejoin:round;stroke-miterlimit:4;stroke-dasharray:none;stroke-dashoffset:0;stroke-opacity:1;paint-order:stroke fill markers"
       id="path874"
       cx="292.40756"
       cy="144.66031"
       rx="4.0282812"
       ry="3.9356773" />
    <path
       style="fill:#000000;stroke:none;stroke-width:0.065;stroke-linecap:butt;stroke-linejoin:miter;stroke-miterlimit:4;stroke-dasharray:none;stroke-opacity:1"
       d="m 229.2947,179.95748 v 2.5374 c -3.85022,2.46898 -6.33388,2.36373 -8.88201,2.37992 -3.77139,0.0496 -6.68153,-1.9972 -8.5574,-4.94061 -1.05838,-1.89871 -2.10232,-4.05209 -2.16982,-6.77621 v -3.50791 c 0.65526,-4.67581 1.84125,-9.0037 6.41484,-11.11083 2.67122,-0.83943 5.38336,-1.38077 8.35932,0 1.30385,0.51076 2.23604,1.44628 3.08111,2.48136 v -2.79463 c 0.64598,-0.11321 1.28769,-0.17089 1.91182,0 v 9.63506 c -0.65091,0.16336 -1.30183,0.11551 -1.95274,0 v -1.35639 c -0.0716,-1.47975 -0.3599,-2.92183 -1.1461,-4.27731 -1.04962,-1.49441 -2.55872,-2.37619 -4.54378,-2.62335 -2.76677,-0.34758 -4.75544,0.62386 -6.12937,1.64236 -1.70745,1.42725 -2.67135,3.28205 -3.13262,5.42585 -1.1187,3.97928 -0.45727,7.26837 0,9.42075 0.46043,1.59673 1.25993,3.03389 2.46985,4.27791 0.88175,0.97015 2.06467,1.66065 3.56378,2.05754 1.96111,0.49744 3.943,0.51672 5.9482,0 1.7151,-0.52779 3.32993,-1.28954 4.76492,-2.47091 z"
       id="path876"
       inkscape:connector-curvature="0"
       sodipodi:nodetypes="ccccccccccccccccccccccc" />
    <path
       style="fill:#000000;stroke:none;stroke-width:0.065;stroke-linecap:butt;stroke-linejoin:miter;stroke-miterlimit:4;stroke-dasharray:none;stroke-opacity:1"
       d="m 236.56777,162.06128 v -2.18659 c 2.56877,-1.4874 5.36977,-2.57026 8.89906,-2.3845 1.82049,0.0839 3.6384,0.17828 5.18473,1.38924 2.03639,1.22654 2.74456,3.17757 3.07876,5.33258 l 0.0788,18.23025 h 3.54884 c 0.12472,0.58465 0.12473,1.1693 0,1.75395 h -5.6302 v -3.57807 c -2.23809,2.86039 -4.70099,3.74748 -7.21717,4.16684 -3.92224,0.48878 -6.90392,-0.2195 -8.76853,-2.34952 -1.03008,-1.59755 -1.82547,-3.31246 -1.49757,-5.589 0.10311,-2.78594 1.2767,-4.82721 3.53133,-6.11644 4.48075,-1.9504 8.78484,-1.94847 13.77655,-2.55328 v -2.94664 c -0.18129,-2.1036 -0.7934,-4.0179 -3.01633,-5.22442 -2.67475,-0.99163 -5.51506,-0.77372 -8.08037,0 z"
       id="path896"
       inkscape:connector-curvature="0"
       sodipodi:nodetypes="ccccccccccccccccccc" />
    <path
       style="fill:#ffffff;stroke:none;stroke-width:0.065;stroke-linecap:butt;stroke-linejoin:miter;stroke-miterlimit:4;stroke-dasharray:none;stroke-opacity:1"
       d="m 251.5526,170.15124 v 6.31693 c -0.3112,2.32986 -1.46218,3.50138 -2.66034,4.60785 -1.57378,1.42329 -4.60621,2.39471 -7.40228,1.98343 -2.1599,-0.22525 -4.98183,-1.56711 -5.06909,-5.06908 -0.0516,-1.64596 0.19895,-3.16372 1.17225,-4.37487 0.91956,-1.14963 2.29883,-1.81866 3.90248,-2.2531 3.4518,-0.60267 6.72701,-0.85215 10.05698,-1.21116 z"
       id="path898"
       inkscape:connector-curvature="0"
       sodipodi:nodetypes="cccccccc" />
    <path
       sodipodi:nodetypes="ccccccccccccccccccc"
       inkscape:connector-curvature="0"
       id="path900"
       d="m 319.64698,162.06128 v -2.18659 c 2.56877,-1.4874 5.36977,-2.57026 8.89906,-2.3845 1.82049,0.0839 3.6384,0.17828 5.18473,1.38924 2.03639,1.22654 2.74456,3.17757 3.07876,5.33258 l 0.0788,18.23025 h 3.54884 c 0.12472,0.58465 0.12473,1.1693 0,1.75395 h -5.6302 v -3.57807 c -2.23809,2.86039 -4.70099,3.74748 -7.21717,4.16684 -3.92224,0.48878 -6.90392,-0.2195 -8.76853,-2.34952 -1.03008,-1.59755 -1.82547,-3.31246 -1.49757,-5.589 0.10311,-2.78594 1.2767,-4.82721 3.53133,-6.11644 4.48075,-1.9504 8.78484,-1.94847 13.77655,-2.55328 v -2.94664 c -0.18129,-2.1036 -0.7934,-4.0179 -3.01633,-5.22442 -2.67475,-0.99163 -5.51506,-0.77372 -8.08037,0 z"
       style="fill:#000000;stroke:none;stroke-width:0.065;stroke-linecap:butt;stroke-linejoin:miter;stroke-miterlimit:4;stroke-dasharray:none;stroke-opacity:1" />
    <path
       sodipodi:nodetypes="cccccccc"
       inkscape:connector-curvature="0"
       id="path902"
       d="m 334.63181,170.15124 v 6.31693 c -0.3112,2.32986 -1.46218,3.50138 -2.66034,4.60785 -1.57378,1.42329 -4.60621,2.39471 -7.40228,1.98343 -2.1599,-0.22525 -4.98183,-1.56711 -5.06909,-5.06908 -0.0516,-1.64596 0.19895,-3.16372 1.17225,-4.37487 0.91956,-1.14963 2.29883,-1.81866 3.90248,-2.2531 3.4518,-0.60267 6.72701,-0.85215 10.05698,-1.21116 z"
       style="fill:#ffffff;stroke:none;stroke-width:0.065;stroke-linecap:butt;stroke-linejoin:miter;stroke-miterlimit:4;stroke-dasharray:none;stroke-opacity:1" />
    <path
       style="fill:#000000;stroke:none;stroke-width:0.065;stroke-linecap:butt;stroke-linejoin:miter;stroke-miterlimit:4;stroke-dasharray:none;stroke-opacity:1"
       d="m 259.40742,192.77312 c -0.11271,-0.55799 -0.0849,-1.13159 0,-1.71153 h 3.73724 v -31.072 h -3.70417 c -0.14315,-0.54299 -0.25529,-1.09313 0,-1.72806 h 5.8043 v 4.67981 c 0.78525,-1.85997 2.16665,-3.83704 4.57647,-4.57646 2.43161,-0.99475 5.08589,-1.36276 8.35504,0 5.2697,3.05808 5.66337,6.9471 6.2648,10.85095 0.12505,1.38096 0.0945,2.79303 0,4.2179 -0.10959,2.16849 -0.59876,4.26797 -1.67743,6.26027 -2.26547,4.04973 -5.42557,5.35785 -9.05494,5.22786 -3.49369,-0.16428 -6.44866,-1.47881 -8.31511,-5.11746 v 11.24394 h 3.96875 c 0.16313,0.51375 0.18925,1.07889 0,1.72478 z"
       id="path904"
       inkscape:connector-curvature="0"
       sodipodi:nodetypes="ccccccccccccccccccc" />
    <path
       style="fill:#ffffff;stroke:none;stroke-width:0.065;stroke-linecap:butt;stroke-linejoin:miter;stroke-miterlimit:4;stroke-dasharray:none;stroke-opacity:1"
       d="m 265.80703,166.15769 c 1.1055,-3.34064 2.83154,-6.04648 6.63112,-6.63112 3.16064,-0.47528 5.80361,0.71499 7.37018,2.92809 2.23482,3.01324 2.23983,5.89905 2.35558,8.7912 v 1.49334 c -0.20538,4.20183 -1.02169,5.21319 -1.7671,6.59486 -1.70539,2.63439 -3.93076,3.53552 -6.38177,3.68453 -2.09089,0.0688 -3.46292,-0.51596 -4.70625,-1.2177 -1.56943,-1.41957 -3.1438,-2.82752 -3.72377,-6.57017 -0.45112,-3.52133 -0.51691,-6.12707 0.22201,-9.07303 z"
       id="path906"
       inkscape:connector-curvature="0"
       sodipodi:nodetypes="cccccccccc" />
    <path
       style="fill:#000000;stroke:none;stroke-width:0.065;stroke-linecap:butt;stroke-linejoin:miter;stroke-miterlimit:4;stroke-dasharray:none;stroke-opacity:1"
       d="m 288.19739,160.00612 c -0.14503,-0.57871 -0.19632,-1.17446 0,-1.81523 h 5.94106 v 24.25137 h 3.75349 c 0.13768,0.60414 0.11118,1.20828 0,1.81242 h -9.72863 c -0.13404,-0.57046 -0.14648,-1.16794 0,-1.80073 h 3.71841 v -22.46233 z"
       id="path908"
       inkscape:connector-curvature="0"
       sodipodi:nodetypes="ccccccccccc" />
    <path
       style="fill:#000000;stroke:none;stroke-width:0.065;stroke-linecap:butt;stroke-linejoin:miter;stroke-miterlimit:4;stroke-dasharray:none;stroke-opacity:1"
       d="m 299.7233,160.12188 c -0.0555,-0.51191 -0.13551,-0.97472 0,-1.86862 h 4.24159 v -7.30912 l 2.23242,-1.2733 v 8.56588 h 6.40789 c 0.23519,0.65881 0.13349,1.27799 0,1.89343 h -6.39135 v 17.75188 c -0.0474,1.30919 0.30671,2.40475 0.87754,3.27496 0.48661,0.73205 1.25793,1.1794 2.31781,1.33819 1.37634,0.13977 2.74293,0.007 4.09723,-0.47076 v 2.00918 c -2.12474,0.65266 -4.22516,0.77819 -6.28386,0 -1.16453,-0.57508 -2.00052,-1.46606 -2.59207,-2.59209 -0.24796,-0.63429 -0.46444,-1.30005 -0.55933,-2.08741 l -0.098,-1.09173 v -18.14876 z"
       id="path910"
       inkscape:connector-curvature="0"
       sodipodi:nodetypes="cccccccccccccccccccc" />
    <path
       style="fill:#000000;stroke:none;stroke-width:0.065;stroke-linecap:butt;stroke-linejoin:miter;stroke-miterlimit:4;stroke-dasharray:none;stroke-opacity:1"
       d="m 344.52377,147.1585 c -0.1107,-0.58454 -0.19309,-1.1711 0,-1.77734 h 5.99853 v 37.02017 h 3.71342 c 0.20684,0.75521 0.0926,1.30466 0,1.79763 h -9.74822 c -0.091,-0.58429 -0.0853,-1.16857 0,-1.75286 h 3.77031 v -35.2888 z"
       id="path912"
       inkscape:connector-curvature="0"
       sodipodi:nodetypes="ccccccccccc" />
  </g>
</svg>
